<svg xmlns="http://www.w3.org/2000/svg" xmlns:xlink="http://www.w3.org/1999/xlink" width="178.529" height="93.022" viewBox="0 0 178.529 93.022">
  <defs>
    <clipPath id="clip-path">
      <rect id="Rectangle_109" data-name="Rectangle 109" width="178.529" height="93.022" fill="#fff"/>
    </clipPath>
  </defs>
  <g id="Group_1608" data-name="Group 1608" clip-path="url(#clip-path)">
    <path id="Path_625" data-name="Path 625" d="M102.058,93.005c1.172-3.123,2.274-6.049,3.371-8.977,1.349-3.6,2.711-7.2,4.021-10.823a2.221,2.221,0,0,0,0-1.429q-6.18-16.23-12.417-32.439c-.371-.965-.728-1.936-1.136-3.025h8.395c-3.125-8.6-6.2-17.072-9.34-25.7-.8,2.2-1.531,4.292-2.308,6.364-2.356,6.281-4.74,12.551-7.07,18.841a2.478,2.478,0,0,0,.014,1.608q6.557,17.18,13.176,34.336c.1.246.155.505.254.832a1.416,1.416,0,0,1-.332.087c-2.578.008-5.156-.008-7.734.028-.6.008-.655-.366-.8-.76-1.536-4.2-3.087-8.4-4.616-12.6-1.447-3.981-2.873-7.97-4.308-11.957l-.175-.483c-.647,1.753-1.225,3.339-1.816,4.919-2.51,6.711-5.035,13.417-7.522,20.137a.976.976,0,0,1-1.1.748q-7.6-.031-15.2,0a1.019,1.019,0,0,1-1.144-.818q-4.33-12.045-8.714-24.071c-.08-.221-.177-.435-.343-.842L35.6,72.755h-2.67c-1.589,0-3.179-.032-4.766.016a1.071,1.071,0,0,1-1.216-.866q-4.3-11.955-8.661-23.889c-.106-.293-.228-.581-.424-1.079-.448,1.226-.817,2.25-1.2,3.27Q12.589,61.148,8.492,72.08c-.093.247-.4.585-.612.588-2.574.041-5.149.026-7.88.026.624-1.658,1.2-3.206,1.788-4.748Q7.589,52.779,13.4,37.614q5.268-13.747,10.551-27.49C25.154,6.977,26.37,3.832,27.539.67a.853.853,0,0,1,.967-.663c2.218.025,4.437.029,6.655,0a.922.922,0,0,1,1.042.7q4.45,11.712,8.947,23.407c.1.269.222.532.4.947.568-1.456,1.094-2.777,1.6-4.106Q50.994,10.88,54.817.8A1.022,1.022,0,0,1,55.972,0q3.237.061,6.475,0a.97.97,0,0,1,1.1.746Q70.007,17.682,76.511,34.6c.18.469.373.933.637,1.593L90.969.02C93.543.02,96.09,0,98.635.047c.242,0,.6.349.7.613,1.63,4.2,3.221,8.408,4.834,12.611q4.3,11.2,8.606,22.4c.082.214.135.439.234.764H104.62l9.334,25.653c.26-.671.481-1.225.69-1.784q4.374-11.74,8.725-23.489a2.18,2.18,0,0,0-.013-1.407Q116.721,17.98,110.034.576c-.062-.162-.109-.329-.185-.558,2.76,0,5.454-.016,8.147.026a1.018,1.018,0,0,1,.7.591Q123.17,12.86,127.6,25.1c.07.193.15.382.283.72.587-1.606,1.117-3.081,1.665-4.549C132.082,14.484,134.634,7.7,137.138.9A1.182,1.182,0,0,1,138.5,0c2.39.042,4.78.016,7.26.016-1.17,3.1-2.3,6.106-3.444,9.108q-4.9,12.826-9.816,25.645-6.986,18.222-13.981,36.44-4,10.443-7.953,20.906a1.182,1.182,0,0,1-1.355.906c-2.331-.044-4.664-.016-7.152-.016M59.112,10.592c-.5,1.406-.922,2.641-1.379,3.864Q53.85,24.84,49.961,35.221a3.087,3.087,0,0,0-.176,2.394c3.69,9.507,7.318,19.038,10.968,28.561.782,2.04,1.578,4.073,2.461,6.347l13.8-36.1c-2.663,0-5.116-.022-7.568.014a1.067,1.067,0,0,1-1.229-.828c-1.16-3.287-2.388-6.55-3.582-9.825-1.826-5.012-3.644-10.026-5.522-15.2m-27.3.072a3.984,3.984,0,0,0-.227.417q-4.672,12.56-9.324,25.128a1.41,1.41,0,0,0,.055.908q3.689,9.7,7.41,19.389c.605,1.58,1.216,3.158,1.867,4.848.107-.216.163-.308.2-.407q4.579-11.99,9.137-23.988a2,2,0,0,0-.033-1.271c-1.721-4.8-3.48-9.579-5.223-14.368-1.283-3.525-2.557-7.053-3.862-10.656" transform="translate(0 0)" fill="#fff"/>
    <path id="Path_626" data-name="Path 626" d="M254.3,36.421c-2.841,0-5.535.02-8.228-.032-.252-.005-.614-.415-.726-.711q-1.863-4.981-3.658-9.99-2.637-7.317-5.254-14.641a2.642,2.642,0,0,0-.234-.383c-.882,2.407-1.722,4.747-2.594,7.075q-3.366,8.99-6.768,17.967a2.277,2.277,0,0,0,.015,1.786q6.619,17.155,13.183,34.331c.093.244.148.5.256.875h-4.464c-1.079,0-2.159-.034-3.236.013a1.038,1.038,0,0,1-1.22-.822q-4.347-12.129-8.771-24.231c-.068-.188-.158-.369-.3-.705-.447,1.206-.845,2.288-1.247,3.367q-4.069,10.9-8.155,21.8a.951.951,0,0,1-.643.554c-2.571.039-5.144.025-7.836.025.9-2.357,1.751-4.609,2.611-6.859q5.554-14.544,11.111-29.086,6.9-18.007,13.8-36.011A.952.952,0,0,1,233.026,0q3.236.055,6.473,0a1.007,1.007,0,0,1,1.147.783q6.513,17.1,13.083,34.174c.169.441.344.88.57,1.461" transform="translate(-75.771 -0.001)" fill="#fff"/>
  </g>
</svg>
